<svg xmlns="http://www.w3.org/2000/svg" width="1440" height="720" viewBox="0 0 1440 720">
  <defs>
    <linearGradient id="bg" x1="0" y1="0" x2="1" y2="1">
      <stop offset="0%" stop-color="#0f172a"/>
      <stop offset="100%" stop-color="#111827"/>
    </linearGradient>
    <linearGradient id="accent" x1="0" y1="0" x2="1" y2="0">
      <stop offset="0%" stop-color="#38bdf8"/>
      <stop offset="100%" stop-color="#a78bfa"/>
    </linearGradient>
  </defs>
  <rect width="1440" height="720" rx="36" fill="url(#bg)"/>
  <rect x="72" y="72" width="1296" height="576" rx="28" fill="#0b1220" stroke="#1f2937" stroke-width="2"/>
  <rect x="120" y="126" width="1224" height="52" rx="14" fill="#111827" stroke="#334155"/>
  <circle cx="152" cy="152" r="7" fill="#ef4444"/>
  <circle cx="176" cy="152" r="7" fill="#f59e0b"/>
  <circle cx="200" cy="152" r="7" fill="#22c55e"/>
  <text x="248" y="160" fill="#cbd5e1" font-family="Inter, Arial, sans-serif" font-size="22">ego-browser — agent-first browser control</text>
  <text x="120" y="248" fill="#f8fafc" font-family="Inter, Arial, sans-serif" font-size="64" font-weight="700">Snapshot. Act. Re-snapshot.</text>
  <text x="120" y="304" fill="#cbd5e1" font-family="Inter, Arial, sans-serif" font-size="28">A real Chrome session, compressed into a small, semantic view.</text>
  <rect x="120" y="362" width="340" height="220" rx="18" fill="#0f172a" stroke="#334155"/>
  <rect x="148" y="392" width="284" height="18" rx="9" fill="#1e293b"/>
  <rect x="148" y="426" width="208" height="18" rx="9" fill="#1e293b"/>
  <rect x="148" y="460" width="252" height="18" rx="9" fill="#1e293b"/>
  <rect x="148" y="504" width="124" height="34" rx="10" fill="url(#accent)"/>
  <text x="172" y="528" fill="#0f172a" font-family="Inter, Arial, sans-serif" font-size="18" font-weight="700">@e3</text>
  <rect x="496" y="362" width="304" height="220" rx="18" fill="#0f172a" stroke="#334155"/>
  <text x="528" y="410" fill="#e2e8f0" font-family="JetBrains Mono, Consolas, monospace" font-size="20">snapshot({ includeStableLocator: true })</text>
  <text x="528" y="452" fill="#94a3b8" font-family="JetBrains Mono, Consolas, monospace" font-size="18">click("@e1")</text>
  <text x="528" y="490" fill="#94a3b8" font-family="JetBrains Mono, Consolas, monospace" font-size="18">fill("css:input[name=email]")</text>
  <text x="528" y="528" fill="#94a3b8" font-family="JetBrains Mono, Consolas, monospace" font-size="18">siteSkills()</text>
  <rect x="832" y="362" width="532" height="220" rx="18" fill="#0f172a" stroke="#334155"/>
  <path d="M872 528 C940 470, 1008 470, 1076 528 S1212 586, 1284 500" fill="none" stroke="url(#accent)" stroke-width="6" stroke-linecap="round"/>
  <rect x="872" y="402" width="126" height="18" rx="9" fill="#1e293b"/>
  <rect x="872" y="436" width="188" height="18" rx="9" fill="#1e293b"/>
  <rect x="872" y="470" width="156" height="18" rx="9" fill="#1e293b"/>
  <text x="120" y="652" fill="#94a3b8" font-family="Inter, Arial, sans-serif" font-size="22">Real Chrome • Accessibility-tree snapshots • Reusable site learnings</text>
</svg>
